<svg xmlns="http://www.w3.org/2000/svg" xmlns:xlink="http://www.w3.org/1999/xlink" viewBox="0 0 365.92 558.27"><defs><style>.cls-1{fill:url(#linear-gradient);}.cls-2{fill:url(#linear-gradient-2);}.cls-3{fill:url(#linear-gradient-3);}</style><linearGradient id="linear-gradient" x1="1564.94" y1="498.59" x2="1912.65" y2="498.59" gradientTransform="translate(-1546.73 -122.15)" gradientUnits="userSpaceOnUse"><stop offset="0" stop-color="#d45e2b"/><stop offset="1" stop-color="#ffb815"/></linearGradient><linearGradient id="linear-gradient-2" x1="-8.1" y1="198.14" x2="357.82" y2="198.14" gradientTransform="translate(8.1 -9.19)" gradientUnits="userSpaceOnUse"><stop offset="0" stop-color="#d44d00"/><stop offset="1" stop-color="#ff0"/></linearGradient><linearGradient id="linear-gradient-3" x1="125.44" y1="160.74" x2="219.4" y2="160.74" gradientTransform="matrix(1, 0, 0, 1, 0, 0)" xlink:href="#linear-gradient-2"/></defs><g id="Layer_2" data-name="Layer 2"><g id="Layer_1-2" data-name="Layer 1"><g id="Shape_2" data-name="Shape 2"><path class="cls-1" d="M186.07,378.62C75.16,317,18.21,349.27,18.21,349.27c77.93-7.33,167.86,44,167.86,44,139.39,54.29,179.85-26.41,179.85-26.41C294,425.57,186.07,378.62,186.07,378.62Z"/></g><g id="Shape_1" data-name="Shape 1"><path class="cls-2" d="M207.05,321.39l-74.93-46.95s-54-23.47-68.95-69c0,0-34.47-74.83,37.47-129.11,0,0,57-44,124.4-7.34,0,0,85.43,42.55,46.46,146.72,0,0-33,64.56-100.42,61.63l73.44,38.15S330,275.91,339,179.07c0,0,7.49-115.91-91.43-158.46,0,0-92.92-58.69-193.34,22,0,0-80.93,69-45,176.07,0,0,15,45.48,45,70.43,0,0-34.47,29.34-40.47,48.41,0,0,48-36.68,155.87,13.21l61.45,22s79.44,22,134.89-24.95C365.92,347.8,291,369.81,207.05,321.39Z"/></g><circle class="cls-3" cx="172.42" cy="160.74" r="46.98"/><path d="M90.87,502.06c0,22.62-13.27,42.32-39.51,42.32-25.06,0-38.47-18.59-38.47-42,0-23.61,14.43-42,39.55-42C76,460.42,90.87,477.33,90.87,502.06Zm-62.11,0c0,16.51,7.68,29.74,23.21,29.74,16.8,0,23-14,23-29.53C75,486.09,67.92,473,51.79,473S28.76,485.64,28.76,502.05Zm44.4,29.65L96.66,548l-9,10.29L59.35,538.51Z"/><path d="M156.2,525.56c0,5.87,0,12.84.12,17.65H142c-.24-1.62-.36-5-.44-7.71-3.39,6.3-8.91,9.12-17.26,9.12-11.64,0-20.18-6.69-20.18-22.43V482.55h14.63V519.2c0,7.13,2.22,13.27,10.43,13.27,8.83,0,12.38-4.79,12.38-17.86V482.55H156.2Z"/><path d="M183.55,515.9c0,9.19,4.64,17.05,13.66,17.05,7.86,0,10.23-3.52,11.94-7.45h14.71c-2.23,7.54-8.82,19.12-27.06,19.12-19.67,0-28-15.13-28-30.94,0-18.69,9.54-32.54,28.67-32.54,20.41,0,27.26,15.28,27.26,29.68a40.83,40.83,0,0,1-.2,5.08Zm26.4-9.32c-.11-8.05-3.67-14.69-12.59-14.69s-12.65,6.18-13.46,14.69Z"/><path d="M247.16,525.27c1.43,5.43,5.7,8.55,12.62,8.55,7.11,0,9.79-2.77,9.79-7.06,0-4.5-2.67-6.39-12.33-8.75-18.94-4.65-22.3-10.5-22.3-18.95,0-8.8,6.3-17.92,23.68-17.92s23.76,9.71,24.38,18H269c-.65-2.81-2.64-7.46-11-7.46-6.54,0-8.58,3-8.58,6.16,0,3.52,2.09,5.24,12.36,7.66,19.62,4.59,22.76,11.26,22.76,20.19,0,10.25-7.91,18.92-25.26,18.92-17.51,0-25.14-8.57-26.54-19.35Z"/><path d="M289.23,482.55H299V465.63h14.67v16.92H326v11.26H313.63v31.81c0,5,1.41,7.24,6.58,7.24a25.94,25.94,0,0,0,4.32-.29v10.32C321.45,544,317.21,544,314,544c-11,0-15-5.84-15-16.27V493.81h-9.73Z"/></g></g></svg>