<svg xmlns="http://www.w3.org/2000/svg" xmlns:xlink="http://www.w3.org/1999/xlink" viewBox="0 0 365.92 412.07"><defs><style>.cls-1{fill:url(#linear-gradient);}.cls-2{fill:url(#linear-gradient-2);}.cls-3{fill:url(#linear-gradient-3);}</style><linearGradient id="linear-gradient" x1="18.21" y1="376.44" x2="365.92" y2="376.44" gradientUnits="userSpaceOnUse"><stop offset="0" stop-color="#d45e2b"/><stop offset="1" stop-color="#ffb815"/></linearGradient><linearGradient id="linear-gradient-2" y1="188.95" x2="365.92" y2="188.95" gradientUnits="userSpaceOnUse"><stop offset="0" stop-color="#d44d00"/><stop offset="1" stop-color="#ff0"/></linearGradient><linearGradient id="linear-gradient-3" x1="125.44" y1="160.74" x2="219.4" y2="160.74" xlink:href="#linear-gradient-2"/></defs><g id="Layer_2" data-name="Layer 2"><g id="Layer_1-2" data-name="Layer 1"><g id="Shape_2" data-name="Shape 2"><path class="cls-1" d="M186.07,378.62C75.16,317,18.21,349.27,18.21,349.27c77.93-7.33,167.86,44,167.86,44,139.39,54.29,179.85-26.41,179.85-26.41C294,425.57,186.07,378.62,186.07,378.62Z"/></g><g id="Shape_1" data-name="Shape 1"><path class="cls-2" d="M207.05,321.39l-74.93-46.95s-54-23.47-68.95-69c0,0-34.47-74.83,37.47-129.12,0,0,57-44,124.4-7.33,0,0,85.43,42.55,46.46,146.72,0,0-33,64.56-100.42,61.63l73.44,38.15S330,275.91,339,179.07c0,0,7.49-115.91-91.43-158.46,0,0-92.92-58.69-193.34,22,0,0-80.93,69-45,176.07,0,0,15,45.48,45,70.43,0,0-34.47,29.34-40.47,48.41,0,0,48-36.68,155.87,13.21l61.45,22s79.44,22,134.89-24.95C365.92,347.8,291,369.81,207.05,321.39Z"/></g><circle class="cls-3" cx="172.42" cy="160.74" r="46.98"/></g></g></svg>