<svg xmlns="http://www.w3.org/2000/svg" viewBox="0 0 109.92 44.42"><defs><style>.cls-1{fill:#f5cf1a;}.cls-2{fill:#fff;}</style></defs><g id="Layer_2" data-name="Layer 2"><g id="Layer_1-2" data-name="Layer 1"><path class="cls-1" d="M37.29,1.5l-1.87,7H33.73L32.55,4c0-.12,0-.24-.07-.37a2.85,2.85,0,0,1,0-.42h0c0,.16,0,.31-.05.44s0,.24-.08.34L31.08,8.5H29.32l-1.86-7h1.67l1,4.71c0,.1,0,.22.06.35s0,.28,0,.44h0c0-.12,0-.25.05-.39a4.19,4.19,0,0,1,.1-.42L31.7,1.5h1.63L34.5,6.25c0,.08,0,.19.06.31s0,.27,0,.43h0c0-.12,0-.25,0-.38s0-.26.07-.39l1-4.72Z" transform="translate(-1.66 -1.1)"/><path class="cls-1" d="M42.42,6.36H39a1.21,1.21,0,0,0,.39.88,1.42,1.42,0,0,0,1,.3A2,2,0,0,0,41,7.41,2.69,2.69,0,0,0,41.76,7l.65.87a3.84,3.84,0,0,1-1.07.57,3.5,3.5,0,0,1-1.19.19,2.56,2.56,0,0,1-1.91-.69A2.63,2.63,0,0,1,37.56,6a2.8,2.8,0,0,1,.72-2,2.4,2.4,0,0,1,1.82-.77,2.25,2.25,0,0,1,1.69.65,2.53,2.53,0,0,1,.63,1.85ZM41,5.42a1.32,1.32,0,0,0-.24-.88.88.88,0,0,0-.7-.27,1,1,0,0,0-.7.31,1.47,1.47,0,0,0-.35.84Z" transform="translate(-1.66 -1.1)"/><path class="cls-1" d="M43.45,8.5V1.1H45V8.5Z" transform="translate(-1.66 -1.1)"/><path class="cls-1" d="M50.44,8.16a3.28,3.28,0,0,1-.79.36,3.48,3.48,0,0,1-.88.11,2.68,2.68,0,0,1-2-.72,2.48,2.48,0,0,1-.72-1.85,2.75,2.75,0,0,1,.77-2,2.75,2.75,0,0,1,2-.76,3.32,3.32,0,0,1,.82.09,3.15,3.15,0,0,1,.72.3l-.56,1a1.73,1.73,0,0,0-.45-.19,1.78,1.78,0,0,0-.47-.06,1.26,1.26,0,0,0-1,.41A1.69,1.69,0,0,0,47.58,6,1.58,1.58,0,0,0,48,7.08a1.31,1.31,0,0,0,1,.4,2.08,2.08,0,0,0,.94-.31Z" transform="translate(-1.66 -1.1)"/><path class="cls-1" d="M53.79,8.63a2.7,2.7,0,0,1-2-.72A2.62,2.62,0,0,1,51.07,6a2.67,2.67,0,0,1,.76-2,2.82,2.82,0,0,1,2-.72,2.64,2.64,0,0,1,2,.72,2.55,2.55,0,0,1,.72,1.9,2.72,2.72,0,0,1-.74,2A2.73,2.73,0,0,1,53.79,8.63Zm.05-1.15a1.07,1.07,0,0,0,.9-.4A1.94,1.94,0,0,0,55,5.9a1.8,1.8,0,0,0-.3-1.12,1.09,1.09,0,0,0-.9-.38,1.11,1.11,0,0,0-.91.41,1.75,1.75,0,0,0-.33,1.13,1.79,1.79,0,0,0,.32,1.15A1.12,1.12,0,0,0,53.84,7.48Z" transform="translate(-1.66 -1.1)"/><path class="cls-1" d="M65.71,8.5H64.22V5.58A1.52,1.52,0,0,0,64,4.69a.76.76,0,0,0-.65-.29.78.78,0,0,0-.66.36,1.43,1.43,0,0,0-.26.87V8.5H61v-3a1.4,1.4,0,0,0-.21-.85.77.77,0,0,0-.64-.29.83.83,0,0,0-.68.34,1.44,1.44,0,0,0-.25.9V8.5H57.68V3.38h1.49v.8h0a2,2,0,0,1,1.65-.93,1.55,1.55,0,0,1,.91.25,1.49,1.49,0,0,1,.57.72A1.94,1.94,0,0,1,63,3.49a2,2,0,0,1,1-.24,1.51,1.51,0,0,1,1.25.52,2.41,2.41,0,0,1,.42,1.55Z" transform="translate(-1.66 -1.1)"/><path class="cls-1" d="M71.61,6.36H68.23a1.21,1.21,0,0,0,.39.88,1.42,1.42,0,0,0,1,.3,2,2,0,0,0,.61-.13A2.69,2.69,0,0,0,71,7l.65.87a3.84,3.84,0,0,1-1.07.57,3.5,3.5,0,0,1-1.19.19,2.56,2.56,0,0,1-1.91-.69A2.63,2.63,0,0,1,66.75,6a2.8,2.8,0,0,1,.72-2,2.39,2.39,0,0,1,1.82-.77A2.25,2.25,0,0,1,71,3.9a2.53,2.53,0,0,1,.63,1.85Zm-1.39-.94A1.32,1.32,0,0,0,70,4.54a.88.88,0,0,0-.7-.27,1,1,0,0,0-.7.31,1.47,1.47,0,0,0-.35.84Z" transform="translate(-1.66 -1.1)"/><path class="cls-1" d="M78.54,8.42a2.1,2.1,0,0,1-.52.15,2.94,2.94,0,0,1-.59,0,1.71,1.71,0,0,1-1.24-.4A1.59,1.59,0,0,1,75.78,7V4.48h-.84V3.38h.84V2.23l1.49-.43V3.38h1.16v1.1H77.27V6.93a.67.67,0,0,0,.12.45.44.44,0,0,0,.37.14,1,1,0,0,0,.25,0l.23-.08Z" transform="translate(-1.66 -1.1)"/><path class="cls-1" d="M81.8,8.63a2.7,2.7,0,0,1-2-.72A2.57,2.57,0,0,1,79.09,6a2.62,2.62,0,0,1,.75-2,2.82,2.82,0,0,1,2-.72,2.68,2.68,0,0,1,2,.72,2.55,2.55,0,0,1,.72,1.9,2.69,2.69,0,0,1-.75,2A2.73,2.73,0,0,1,81.8,8.63Zm.06-1.15a1.06,1.06,0,0,0,.89-.4,1.94,1.94,0,0,0,.3-1.18,1.8,1.8,0,0,0-.3-1.12,1.09,1.09,0,0,0-.9-.38,1.13,1.13,0,0,0-.92.41,1.75,1.75,0,0,0-.32,1.13,1.79,1.79,0,0,0,.31,1.15A1.13,1.13,0,0,0,81.86,7.48Z" transform="translate(-1.66 -1.1)"/><path class="cls-2" d="M15.23,41a12.93,12.93,0,0,1-9.8-3.94A14.1,14.1,0,0,1,1.66,26.87,15.15,15.15,0,0,1,5.47,16.15,13.23,13.23,0,0,1,15.68,12a12.72,12.72,0,0,1,9.66,3.91Q29,19.85,29,26.3a20,20,0,0,1-1,6.49,10.73,10.73,0,0,1-3.14,4.76l4.36,3.93-4.61,4-4.77-5.08a21.28,21.28,0,0,1-2.23.38A19.35,19.35,0,0,1,15.23,41Zm.28-23.69a6.54,6.54,0,0,0-5.41,2.53,10.46,10.46,0,0,0-2,6.71,10.3,10.3,0,0,0,2,6.69,6.43,6.43,0,0,0,5.24,2.47,6.49,6.49,0,0,0,5.33-2.42,10.18,10.18,0,0,0,2-6.63,11.1,11.1,0,0,0-1.89-6.88A6.19,6.19,0,0,0,15.51,17.3Z" transform="translate(-1.66 -1.1)"/><path class="cls-2" d="M52.7,40.5h-6V37.36h-.1a8.15,8.15,0,0,1-2.72,2.73,7,7,0,0,1-3.57.92A6.52,6.52,0,0,1,35,38.85q-1.78-2.16-1.78-6.47V20h6v11.8a5.54,5.54,0,0,0,.9,3.44,3.22,3.22,0,0,0,2.71,1.15,3.57,3.57,0,0,0,2.87-1.26,5.07,5.07,0,0,0,1.08-3.41V20h6Z" transform="translate(-1.66 -1.1)"/><path class="cls-2" d="M76.58,31.93H63.09a4.81,4.81,0,0,0,1.54,3.54,5.7,5.7,0,0,0,3.83,1.18,8.44,8.44,0,0,0,2.45-.51,10.78,10.78,0,0,0,3-1.64L76.54,38a15.42,15.42,0,0,1-4.25,2.3A15.18,15.18,0,0,1,67.5,41q-4.9,0-7.62-2.76c-1.81-1.83-2.71-4.4-2.71-7.69a11.21,11.21,0,0,1,2.87-8A9.54,9.54,0,0,1,67.3,19.5a9,9,0,0,1,6.77,2.58c1.68,1.72,2.51,4.2,2.51,7.42ZM71,28.18a5.22,5.22,0,0,0-1-3.51,3.57,3.57,0,0,0-2.81-1.08,3.68,3.68,0,0,0-2.79,1.24,5.76,5.76,0,0,0-1.41,3.35Z" transform="translate(-1.66 -1.1)"/><path class="cls-2" d="M78.79,38.78l2.48-4a10.81,10.81,0,0,0,2.45,1.36,8.45,8.45,0,0,0,3.14.55A4.2,4.2,0,0,0,89,36.21a1.54,1.54,0,0,0,.83-1.45,1.43,1.43,0,0,0-.64-1.24,7,7,0,0,0-2.38-.85,12.11,12.11,0,0,1-5.47-2.3,5.19,5.19,0,0,1-1.66-4.11,5.82,5.82,0,0,1,2.45-4.92,9.77,9.77,0,0,1,6-1.84,12.42,12.42,0,0,1,3.49.48,11.6,11.6,0,0,1,3.1,1.42l-2.25,3.87a11.62,11.62,0,0,0-2.33-1.15,7.1,7.1,0,0,0-2.24-.36,3.9,3.9,0,0,0-2.13.51,1.52,1.52,0,0,0-.8,1.31,1.39,1.39,0,0,0,.73,1.3,11.08,11.08,0,0,0,2.81.85A10.2,10.2,0,0,1,93.6,30a5.5,5.5,0,0,1,1.56,4.13,6.06,6.06,0,0,1-2.35,5A9.55,9.55,0,0,1,86.62,41a14.77,14.77,0,0,1-4-.54A15.18,15.18,0,0,1,78.79,38.78Z" transform="translate(-1.66 -1.1)"/><path class="cls-2" d="M111.58,40.17a9,9,0,0,1-2.08.61,12.86,12.86,0,0,1-2.33.21,6.87,6.87,0,0,1-5-1.6,6.29,6.29,0,0,1-1.67-4.77V24.43H97.21V20h3.34V15.4l6-1.72V20h4.67v4.42H106.5v9.78A2.79,2.79,0,0,0,107,36a1.88,1.88,0,0,0,1.51.56,4,4,0,0,0,1-.12,5.74,5.74,0,0,0,.9-.34Z" transform="translate(-1.66 -1.1)"/></g></g></svg>